<svg width="122" height="90" viewBox="0 0 122 90" fill="none" xmlns="http://www.w3.org/2000/svg">
<path d="M62.0352 23.8984H71.1877V32.5425V37.1188V41.6951H62.0352C62.6515 34.7425 62.6199 30.8506 62.0352 23.8984Z" fill="#D9D9D9"/>
<path d="M76.7793 23.8984H67.6267V32.5425V37.1188V41.6951H76.7793C76.1629 34.7425 76.1946 30.8506 76.7793 23.8984Z" fill="#D9D9D9"/>
<path d="M53.9054 38.9803C55.9959 37.2056 58.1922 36.3134 61.2712 35.3381C64.9811 34.163 75.7541 34.825 77.034 35.3381C78.2431 35.8229 82.0502 36.4391 86.2147 39.6075C86.6871 39.9669 87.2927 40.1184 87.8818 40.0456C100.991 38.4251 105.36 55.8063 111.356 59.4907C117.492 63.261 118.946 67.1921 121.526 74.4126L106.271 74.4126C102.934 72.2952 100.898 70.594 99.2727 68.7233C97.9702 67.2239 95.31 67.9282 95.2411 69.9132L95.0848 74.4126H44.7458L44.4331 68.8902C44.3922 68.1671 44.2787 67.4478 44.0602 66.7574C43.1422 63.8559 42.0363 61.881 40.4937 59.8789C38.5816 57.3973 35.4206 56.3412 32.2883 56.3966C25.6876 56.5132 20.9432 55.2335 13.863 51.0227C13.863 51.0227 -3.51536 45.1881 0.642697 39.3278C4.80075 33.4676 6.19079 30.4603 13.4746 26.4617C20.4584 19.5263 24.7876 16.0963 33.5898 12.8155C33.7373 12.7605 33.882 12.7142 34.0346 12.6757C35.7149 12.2512 46.4715 9.66808 48.8136 12.4788C50.846 14.9179 51.4375 17.1016 50.9265 20.0316C50.6708 21.4981 49.4031 22.5341 47.9309 22.7544C48.1369 24.2473 47.8595 24.4633 47.1304 24.717C46.0538 25.0918 44.7163 25.8504 43.7999 25.1724C43.4525 24.9155 42.9464 24.3535 41.9492 23.1568C39.4068 20.1059 36.5571 19.8517 36.2358 19.5975C35.9145 19.3432 30 25.4449 29.7647 25.8532C29.5688 26.193 23.8365 35.6645 22.6142 37.6502C24.0414 35.9192 31.4235 36.0773 35.301 39.0006C35.9142 39.4629 36.7041 39.6902 37.4368 39.4604C43.5362 37.5479 46.7541 36.5466 51.166 39.2079C52.0278 39.7278 53.1381 39.6317 53.9054 38.9803Z" fill="#D9D9D9"/>
<path d="M58.2279 13.499C58.9794 13.247 59.8415 13.1138 60.5362 13.3271C62.153 13.8236 60.5362 23.7508 60.5362 23.7508C59.2731 23.9094 58.0783 23.4622 56.9769 22.4797C55.6438 21.2906 55.8565 18.6027 56.156 16.6966C56.3674 15.3515 56.9369 13.9319 58.2279 13.499Z" fill="#D9D9D9"/>
<path d="M81.3307 13.499C80.5792 13.247 79.7171 13.1138 79.0224 13.3271C77.4056 13.8236 79.0224 23.7508 79.0224 23.7508C80.2855 23.9094 81.4803 23.4622 82.5817 22.4797C83.9148 21.2906 83.7021 18.6027 83.4026 16.6966C83.1912 15.3515 82.6216 13.9319 81.3307 13.499Z" fill="#D9D9D9"/>
<path d="M81.1044 13.9831C82.5001 24.0711 77.4394 30.75 69.4094 28.2204C62.0773 30.2842 57.3711 23.7827 58.0894 14.2373C57.0909 6.35832 62.4048 -0.0198095 69.7843 4.62341e-05C77.4785 -0.00816317 82.5828 6.11323 81.1044 13.9831Z" fill="#D9D9D9"/>
<path d="M62.4451 37.8815C61.5518 32.3642 61.6384 29.2923 59.6484 23.8984H63.9705V37.8815H62.4451Z" fill="#D9D9D9"/>
<path d="M77.1897 37.8815C78.0829 32.3642 77.9964 29.2923 79.9863 23.8984H75.6643V37.8815H77.1897Z" fill="#D9D9D9"/>
<path d="M46.1284 90C45.4322 83.8969 44.8505 82.0341 44.7441 74.2373H95.0832C95.2275 80.947 94.4292 83.8801 93.6708 90H46.1284Z" fill="#D9D9D9"/>
</svg>
