<svg width="98" height="96" viewBox="0 0 98 96" fill="none" xmlns="http://www.w3.org/2000/svg">
<path d="M52.3521 40.3756L58.8013 55.4844C58.8868 55.6849 58.8997 55.9126 58.7823 56.0962C58.7246 56.1864 58.648 56.2888 58.5486 56.3913C58.286 56.6621 57.8615 56.5917 57.5839 56.3363L45.8584 45.5471L50.8539 40.1181C51.2987 39.6346 52.0942 39.7713 52.3521 40.3756Z" fill="#D9D9D9" stroke="#D9D9D9" stroke-width="0.0904981"/>
<path d="M45.4682 54.8432L39.019 39.7343C38.9335 39.5339 38.9206 39.3062 39.038 39.1226C39.0957 39.0323 39.1723 38.93 39.2717 38.8275C39.5343 38.5567 39.9588 38.6271 40.2364 38.8825L51.9619 49.6716L46.9665 55.1007C46.5216 55.5841 45.7261 55.4474 45.4682 54.8432Z" fill="#D9D9D9" stroke="#D9D9D9" stroke-width="0.0904981"/>
<rect x="34.7891" width="31.4364" height="52.1384" rx="5.36719" transform="rotate(41.8544 34.7891 0)" fill="#D9D9D9"/>
<rect x="74.1953" y="35.3008" width="31.4364" height="52.1384" rx="5.36719" transform="rotate(41.8544 74.1953 35.3008)" fill="#D9D9D9"/>
</svg>
