<svg width="111" height="78" viewBox="0 0 111 78" fill="none" xmlns="http://www.w3.org/2000/svg">
<path d="M2.62722 39.31L8.23196 23.0213H2.62722V13.9719H36.4892V23.0213H30.8845L36.4892 39.31H24.5207L19.5582 22.9629L14.5957 39.31H2.62722ZM39.7002 39.31V13.9719H51.3768V39.31H39.7002ZM2.91914 41.0615H51.3768V63.3637H2.91914V41.0615ZM27.148 41.9373C27.148 49.4102 19.6166 52.1542 5.02091 52.271C19.6166 52.3878 27.148 55.0734 27.148 62.488C27.148 55.0734 34.621 52.3294 49.2166 52.2126C34.621 52.0959 27.148 49.4102 27.148 41.9373ZM57.1968 40.0106V13.9719H68.5231V30.9613C71.1503 30.9613 75.8793 30.5526 79.032 29.7937V40.0106H57.1968ZM72.3179 27.4583V18.1171H81.017V13.9719H92.1681V40.4777H81.017V27.4583H72.3179ZM94.445 40.4777V13.9719H105.654V40.4777H94.445ZM105.654 63.3637H93.9779V51.2785H57.1968V42.2292H105.654V63.3637Z" fill="white"/>
<rect x="4.17188" y="41.1172" width="45.278" height="21.4515" fill="white"/>
<path d="M24.7375 45.015L37.3999 51.0652C37.5654 51.1443 37.6999 51.281 37.7298 51.4619C37.7457 51.5587 37.7563 51.6772 37.7501 51.8106C37.7353 52.1298 37.4292 52.3263 37.1097 52.322L23.564 52.1372L23.648 45.6918C23.6553 45.1361 24.236 44.7754 24.7375 45.015Z" fill="#0060BF" stroke="#0060BF" stroke-width="0.076159"/>
<path d="M28.5906 58.3913L15.9282 52.341C15.7627 52.2619 15.6282 52.1253 15.5983 51.9443C15.5824 51.8475 15.5718 51.7291 15.578 51.5957C15.5928 51.2765 15.8989 51.0799 16.2184 51.0843L29.7641 51.2691L29.6801 57.7145C29.6729 58.2702 29.0921 58.6309 28.5906 58.3913Z" fill="#0060BF" stroke="#0060BF" stroke-width="0.076159"/>
</svg>
