<svg width="24" height="24" viewBox="0 0 24 24" fill="#767676" xmlns="http://www.w3.org/2000/svg">
<path d="M8.95927 13.2569H7.43945C7.18868 13.2569 6.98351 13.0451 6.98351 12.7862V11.2173C6.98351 10.9585 7.18868 10.7467 7.43945 10.7467H8.95927C9.21004 10.7467 9.41522 10.9585 9.41522 11.2173V12.7862C9.41522 13.0451 9.21004 13.2569 8.95927 13.2569ZM13.0628 12.7862V11.2173C13.0628 10.9585 12.8576 10.7467 12.6068 10.7467H11.087C10.8363 10.7467 10.6311 10.9585 10.6311 11.2173V12.7862C10.6311 13.0451 10.8363 13.2569 11.087 13.2569H12.6068C12.8576 13.2569 13.0628 13.0451 13.0628 12.7862ZM16.7104 12.7862V11.2173C16.7104 10.9585 16.5052 10.7467 16.2544 10.7467H14.7346C14.4838 10.7467 14.2786 10.9585 14.2786 11.2173V12.7862C14.2786 13.0451 14.4838 13.2569 14.7346 13.2569H16.2544C16.5052 13.2569 16.7104 13.0451 16.7104 12.7862ZM13.0628 16.5515V14.9827C13.0628 14.7238 12.8576 14.512 12.6068 14.512H11.087C10.8363 14.512 10.6311 14.7238 10.6311 14.9827V16.5515C10.6311 16.8104 10.8363 17.0222 11.087 17.0222H12.6068C12.8576 17.0222 13.0628 16.8104 13.0628 16.5515ZM9.41522 16.5515V14.9827C9.41522 14.7238 9.21004 14.512 8.95927 14.512H7.43945C7.18868 14.512 6.98351 14.7238 6.98351 14.9827V16.5515C6.98351 16.8104 7.18868 17.0222 7.43945 17.0222H8.95927C9.21004 17.0222 9.41522 16.8104 9.41522 16.5515ZM16.7104 16.5515V14.9827C16.7104 14.7238 16.5052 14.512 16.2544 14.512H14.7346C14.4838 14.512 14.2786 14.7238 14.2786 14.9827V16.5515C14.2786 16.8104 14.4838 17.0222 14.7346 17.0222H16.2544C16.5052 17.0222 16.7104 16.8104 16.7104 16.5515ZM20.3579 6.35381V20.16C20.3579 21.1994 19.541 22.0426 18.5341 22.0426H5.15972C4.15284 22.0426 3.33594 21.1994 3.33594 20.16V6.35381C3.33594 5.31442 4.15284 4.47115 5.15972 4.47115H6.98351V2.4316C6.98351 2.17274 7.18868 1.96094 7.43945 1.96094H8.95927C9.21004 1.96094 9.41522 2.17274 9.41522 2.4316V4.47115H14.2786V2.4316C14.2786 2.17274 14.4838 1.96094 14.7346 1.96094H16.2544C16.5052 1.96094 16.7104 2.17274 16.7104 2.4316V4.47115H18.5341C19.541 4.47115 20.3579 5.31442 20.3579 6.35381ZM18.5341 19.9246V8.23647H5.15972V19.9246C5.15972 20.0541 5.26231 20.16 5.3877 20.16H18.3062C18.4316 20.16 18.5341 20.0541 18.5341 19.9246Z" fill="current"/>
</svg>
