<svg width="20" height="20" viewBox="0 0 20 20" fill="none" xmlns="http://www.w3.org/2000/svg">
<path d="M14 6.66797C15.3807 6.66797 16.5 5.54868 16.5 4.16797C16.5 2.78726 15.3807 1.66797 14 1.66797C12.6193 1.66797 11.5 2.78726 11.5 4.16797C11.5 5.54868 12.6193 6.66797 14 6.66797Z" stroke="#767676" stroke-width="1.5" stroke-linecap="round" stroke-linejoin="round"/>
<path d="M4 12.5C5.38071 12.5 6.5 11.3807 6.5 10C6.5 8.61929 5.38071 7.5 4 7.5C2.61929 7.5 1.5 8.61929 1.5 10C1.5 11.3807 2.61929 12.5 4 12.5Z" stroke="#767676" stroke-width="1.5" stroke-linecap="round" stroke-linejoin="round"/>
<path d="M14 18.332C15.3807 18.332 16.5 17.2127 16.5 15.832C16.5 14.4513 15.3807 13.332 14 13.332C12.6193 13.332 11.5 14.4513 11.5 15.832C11.5 17.2127 12.6193 18.332 14 18.332Z" stroke="#767676" stroke-width="1.5" stroke-linecap="round" stroke-linejoin="round"/>
<path d="M6.15625 11.2578L11.8479 14.5745" stroke="#767676" stroke-width="1.5" stroke-linecap="round" stroke-linejoin="round"/>
<path d="M11.8396 5.42578L6.15625 8.74245" stroke="#767676" stroke-width="1.5" stroke-linecap="round" stroke-linejoin="round"/>
</svg>
