<svg width="4" height="18" viewBox="0 0 4 18" fill="none" xmlns="http://www.w3.org/2000/svg">
<path d="M2.00019 10.0004C2.55258 10.0004 3.00037 9.55258 3.00037 9.00019C3.00037 8.4478 2.55258 8 2.00019 8C1.4478 8 1 8.4478 1 9.00019C1 9.55258 1.4478 10.0004 2.00019 10.0004Z" fill="white" stroke="white" stroke-width="1.00019" stroke-linecap="round" stroke-linejoin="round"/>
<path d="M2.00019 3.00037C2.55258 3.00037 3.00037 2.55258 3.00037 2.00019C3.00037 1.4478 2.55258 1 2.00019 1C1.4478 1 1 1.4478 1 2.00019C1 2.55258 1.4478 3.00037 2.00019 3.00037Z" fill="white" stroke="white" stroke-width="1.00019" stroke-linecap="round" stroke-linejoin="round"/>
<path d="M2.00019 17.0043C2.55258 17.0043 3.00037 16.5565 3.00037 16.0041C3.00037 15.4517 2.55258 15.0039 2.00019 15.0039C1.4478 15.0039 1 15.4517 1 16.0041C1 16.5565 1.4478 17.0043 2.00019 17.0043Z" fill="white" stroke="white" stroke-width="1.00019" stroke-linecap="round" stroke-linejoin="round"/>
</svg>
