<svg width="24" height="24" viewBox="0 0 24 24" fill="none" xmlns="http://www.w3.org/2000/svg">
<path d="M20.9999 12.2082C20.9999 11.6028 20.9463 11.0281 20.8543 10.4688H12.1953V13.9247H17.1532C16.9309 15.0588 16.2796 16.0166 15.3141 16.668V18.9668H18.2719C20.0037 17.3653 20.9999 15.0051 20.9999 12.2082Z" fill="#4285F4"/>
<path d="M12.1991 21.1984C14.6818 21.1984 16.7585 20.3708 18.2757 18.9685L15.3179 16.6697C14.4903 17.2214 13.4405 17.5586 12.1991 17.5586C9.80061 17.5586 7.76996 15.9417 7.042 13.7578H3.99219V16.1256C5.50177 19.1295 8.60521 21.1984 12.1991 21.1984Z" fill="#34A853"/>
<path d="M7.03831 13.7524C6.84674 13.2007 6.74712 12.6106 6.74712 11.9976C6.74712 11.3846 6.8544 10.7945 7.03831 10.2428V7.875H3.9885C3.36015 9.11638 3 10.511 3 11.9976C3 13.4842 3.36015 14.8788 3.9885 16.1202L7.03831 13.7524Z" fill="#FBBC05"/>
<path d="M12.1991 6.44453C13.5554 6.44453 14.7661 6.91197 15.724 7.82384L18.3447 5.20315C16.7585 3.71657 14.6818 2.80469 12.1991 2.80469C8.60521 2.80469 5.50177 4.87365 3.99219 7.87748L7.042 10.2453C7.76996 8.06139 9.80061 6.44453 12.1991 6.44453Z" fill="#EA4335"/>
</svg>
