<svg width="36" height="36" viewBox="0 0 36 36" fill="none" xmlns="http://www.w3.org/2000/svg">
<ellipse cx="18" cy="18" rx="18" ry="18" fill="#006CD8"/>
<path d="M24.4167 9.75H11.5833C10.5708 9.75 9.75 10.5708 9.75 11.5833V24.4167C9.75 25.4292 10.5708 26.25 11.5833 26.25H24.4167C25.4292 26.25 26.25 25.4292 26.25 24.4167V11.5833C26.25 10.5708 25.4292 9.75 24.4167 9.75Z" stroke="white" stroke-width="1.5" stroke-linecap="round" stroke-linejoin="round"/>
<path d="M14.7891 16.168C15.5485 16.168 16.1641 15.5524 16.1641 14.793C16.1641 14.0336 15.5485 13.418 14.7891 13.418C14.0297 13.418 13.4141 14.0336 13.4141 14.793C13.4141 15.5524 14.0297 16.168 14.7891 16.168Z" stroke="white" stroke-width="1.5" stroke-linecap="round" stroke-linejoin="round"/>
<path d="M26.2526 20.7513L21.6693 16.168L11.5859 26.2513" stroke="white" stroke-width="1.5" stroke-linecap="round" stroke-linejoin="round"/>
</svg>
