<svg width="24" height="24" viewBox="0 0 24 24" fill="none" xmlns="http://www.w3.org/2000/svg">
<path d="M20.8491 11.4203C20.8525 12.7308 20.5463 14.0236 19.9554 15.1934C19.2549 16.5951 18.1779 17.7741 16.8451 18.5984C15.5123 19.4226 13.9763 19.8595 12.4093 19.8601C11.0988 19.8635 9.80596 19.5573 8.63619 18.9665L2.97656 20.853L4.8631 15.1934C4.27225 14.0236 3.96606 12.7308 3.96948 11.4203C3.97009 9.85323 4.40697 8.31728 5.2312 6.98448C6.05542 5.65169 7.23444 4.57469 8.63619 3.87412C9.80596 3.28327 11.0988 2.97708 12.4093 2.9805H12.9057C14.9753 3.09467 16.9301 3.96821 18.3957 5.43385C19.8613 6.8995 20.7349 8.85425 20.8491 10.9238V11.4203Z" stroke="#767676" stroke-width="2" stroke-linecap="round" stroke-linejoin="round"/>
</svg>
