<svg width="24" height="24" viewBox="0 0 24 24" fill="#767676" xmlns="http://www.w3.org/2000/svg">
<path d="M19.8554 21.8449V18.8662C19.8554 17.8128 19.437 16.8026 18.6921 16.0578C17.9473 15.313 16.9371 14.8945 15.8837 14.8945H7.94042C6.88707 14.8945 5.87686 15.313 5.13202 16.0578C4.38719 16.8026 3.96875 17.8128 3.96875 18.8662V21.8449" stroke="current" stroke-width="2" stroke-linecap="round" stroke-linejoin="round"/>
<path d="M3.96875 21.8438H19.8554" stroke="current" stroke-width="2" stroke-linecap="round"/>
<path d="M11.917 10.9238C14.1105 10.9238 15.8886 9.14563 15.8886 6.95214C15.8886 4.75864 14.1105 2.98047 11.917 2.98047C9.72349 2.98047 7.94531 4.75864 7.94531 6.95214C7.94531 9.14563 9.72349 10.9238 11.917 10.9238Z" stroke="current" stroke-width="2" stroke-linecap="round" stroke-linejoin="round"/>
</svg>
