<svg width="122" height="110" viewBox="0 0 122 110" fill="none" xmlns="http://www.w3.org/2000/svg">
<mask id="mask0_158_1298" style="mask-type:alpha" maskUnits="userSpaceOnUse" x="0" y="20" width="122" height="90">
<path d="M62.0312 43.8984H71.1838V52.5425V57.1188V61.6951H62.0312C62.6476 54.7425 62.616 50.8506 62.0312 43.8984Z" fill="#D9D9D9"/>
<path d="M76.7812 43.8984H67.6287V52.5425V57.1188V61.6951H76.7812C76.1649 54.7425 76.1965 50.8506 76.7812 43.8984Z" fill="#D9D9D9"/>
<path d="M53.9054 58.9822C55.9959 57.2075 58.1922 56.3153 61.2712 55.3401C64.9811 54.165 75.7541 54.8269 77.034 55.3401C78.2431 55.8248 82.0502 56.441 86.2147 59.6095C86.6871 59.9689 87.2927 60.1204 87.8818 60.0476C100.991 58.4271 105.36 75.8083 111.356 79.4926C117.492 83.2629 118.946 87.1941 121.526 94.4146L106.271 94.4145C102.934 92.2972 100.898 90.5959 99.2727 88.7253C97.9702 87.2258 95.31 87.9302 95.2411 89.9152L95.0848 94.4145H44.7458L44.4331 88.8921C44.3922 88.1691 44.2787 87.4498 44.0602 86.7593C43.1422 83.8578 42.0363 81.8829 40.4937 79.8808C38.5816 77.3993 35.4206 76.3432 32.2883 76.3985C25.6876 76.5151 20.9432 75.2355 13.863 71.0247C13.863 71.0247 -3.51536 65.19 0.642697 59.3298C4.80075 53.4695 6.19079 50.4623 13.4746 46.4637C20.4584 39.5282 24.7876 36.0982 33.5898 32.8175C33.7373 32.7625 33.882 32.7162 34.0346 32.6776C35.7149 32.2532 46.4715 29.67 48.8136 32.4808C50.846 34.9199 51.4375 37.1035 50.9265 40.0336C50.6708 41.5 49.4031 42.5361 47.9309 42.7564C48.1369 44.2492 47.8595 44.4652 47.1304 44.719C46.0538 45.0937 44.7163 45.8523 43.7999 45.1744C43.4525 44.9174 42.9464 44.3555 41.9492 43.1587C39.4068 40.1079 36.5571 39.8537 36.2358 39.5994C35.9145 39.3452 30 45.4469 29.7647 45.8552C29.5688 46.195 23.8365 55.6664 22.6142 57.6521C24.0414 55.9212 31.4235 56.0792 35.301 59.0025C35.9142 59.4648 36.7041 59.6921 37.4368 59.4623C43.5362 57.5498 46.7541 56.5485 51.166 59.2098C52.0278 59.7297 53.1381 59.6337 53.9054 58.9822Z" fill="#D9D9D9"/>
<path d="M58.2259 33.4971C58.9775 33.2451 59.8396 33.1118 60.5342 33.3251C62.151 33.8216 60.5342 43.7489 60.5342 43.7489C59.2711 43.9074 58.0764 43.4602 56.9749 42.4777C55.6419 41.2887 55.8545 38.6007 56.1541 36.6946C56.3655 35.3496 56.935 33.93 58.2259 33.4971Z" fill="#D9D9D9"/>
<path d="M81.3288 33.4971C80.5772 33.2451 79.7151 33.1118 79.0205 33.3251C77.4037 33.8216 79.0205 43.7489 79.0205 43.7489C80.2836 43.9074 81.4783 43.4602 82.5798 42.4777C83.9128 41.2887 83.7001 38.6007 83.4006 36.6946C83.1892 35.3496 82.6197 33.93 81.3288 33.4971Z" fill="#D9D9D9"/>
<path d="M81.1044 33.9831C82.5001 44.0711 77.4394 50.75 69.4094 48.2204C62.0773 50.2842 57.3711 43.7827 58.0894 34.2373C57.0909 26.3583 62.4048 19.9802 69.7843 20C77.4785 19.9918 82.5828 26.1132 81.1044 33.9831Z" fill="#D9D9D9"/>
<path d="M62.4451 57.8815C61.5518 52.3642 61.6384 49.2923 59.6484 43.8984H63.9705V57.8815H62.4451Z" fill="#D9D9D9"/>
<path d="M77.1878 57.8815C78.081 52.3642 77.9944 49.2923 79.9844 43.8984H75.6623V57.8815H77.1878Z" fill="#D9D9D9"/>
<path d="M46.1264 110.001C45.4303 103.898 44.8486 102.035 44.7422 94.2383H95.0812C95.2255 100.948 94.4273 103.881 93.6688 110.001H46.1264Z" fill="#D9D9D9"/>
</mask>
<g mask="url(#mask0_158_1298)">
<circle cx="67" cy="55" r="55" fill="#D9D9D9"/>
</g>
<circle cx="67" cy="55" r="54.5" stroke="#D9D9D9"/>
</svg>
