<svg width="104" height="51" viewBox="0 0 104 51" fill="none" xmlns="http://www.w3.org/2000/svg">
<path d="M0.627222 26.31L6.23196 10.0213H0.627222V0.971935H34.4892V10.0213H28.8845L34.4892 26.31H22.5207L17.5582 9.96288L12.5957 26.31H0.627222ZM37.7002 26.31V0.971935H49.3768V26.31H37.7002ZM0.919136 28.0615H49.3768V50.3637H0.919136V28.0615ZM25.148 28.9373C25.148 36.4102 17.6166 39.1542 3.02091 39.271C17.6166 39.3878 25.148 42.0734 25.148 49.488C25.148 42.0734 32.621 39.3294 47.2166 39.2126C32.621 39.0959 25.148 36.4102 25.148 28.9373ZM55.1968 27.0106V0.971935H66.5231V17.9613C69.1503 17.9613 73.8793 17.5526 77.032 16.7937V27.0106H55.1968ZM70.3179 14.4583V5.11711H79.017V0.971935H90.1681V27.4777H79.017V14.4583H70.3179ZM92.445 27.4777V0.971935H103.654V27.4777H92.445ZM103.654 50.3637H91.9779V38.2785H55.1968V29.2292H103.654V50.3637Z" fill="white"/>
</svg>
