<svg width="281" height="186" viewBox="0 0 281 186" fill="none" xmlns="http://www.w3.org/2000/svg">
<path d="M136.68 53.2967L193.517 96.0742C194.238 96.6171 194.75 97.4031 194.763 98.3058C194.772 98.948 194.723 99.7742 194.524 100.701C194.179 102.306 192.506 103.114 190.886 102.852L124.794 92.182L130.681 55.712C131.134 52.9057 134.409 51.5873 136.68 53.2967Z" fill="#0060BF" stroke="#0060BF" stroke-width="0.377619"/>
<path d="M148.695 131.391L91.8582 88.6132C91.137 88.0703 90.6247 87.2843 90.6121 86.3816C90.6032 85.7394 90.6524 84.9132 90.8515 83.9861C91.196 82.3815 92.8686 81.5738 94.4888 81.8354L160.582 92.5054L154.694 128.975C154.241 131.782 150.966 133.1 148.695 131.391Z" fill="#0060BF" stroke="#0060BF" stroke-width="0.377619"/>
<rect x="21.4688" y="2.09766" width="88.5838" height="146.883" rx="17.1987" transform="rotate(8.40686 21.4688 2.09766)" fill="#0060BF"/>
<rect x="193.086" y="25.3164" width="88.5838" height="146.883" rx="17.1987" transform="rotate(8.40686 193.086 25.3164)" fill="#0060BF"/>
</svg>
