<svg width="537" height="473" viewBox="0 0 537 473" fill="none" xmlns="http://www.w3.org/2000/svg">
<path d="M277.66 190.666L331.825 268.58C332.243 269.181 332.435 269.916 332.226 270.618C331.951 271.544 331.385 272.929 330.247 274.288C329.435 275.258 328.023 275.324 326.937 274.673L250.019 228.571L272.563 190.84C273.694 188.947 276.4 188.855 277.66 190.666Z" fill="#D9D9D9" stroke="#D9D9D9" stroke-width="0.303806"/>
<path d="M260.106 282.013L205.941 204.1C205.523 203.499 205.331 202.763 205.539 202.062C205.814 201.136 206.381 199.751 207.518 198.392C208.331 197.421 209.743 197.356 210.829 198.007L287.746 244.109L265.203 281.84C264.072 283.733 261.365 283.825 260.106 282.013Z" fill="#D9D9D9" stroke="#D9D9D9" stroke-width="0.303806"/>
<rect width="174.216" height="288.987" rx="18.0179" transform="matrix(0.864508 0.502619 -0.501419 0.865205 138.656 -6.32031)" fill="#D9D9D9"/>
<rect width="174.216" height="288.987" rx="18.0179" transform="matrix(0.864508 0.502619 -0.501419 0.865205 392.123 141.047)" fill="#D9D9D9"/>
</svg>
