<svg width="23" height="14" viewBox="0 0 23 14" fill="none" xmlns="http://www.w3.org/2000/svg">
<path fill-rule="evenodd" clip-rule="evenodd" d="M22.2465 6.91081C22.2529 6.77437 22.2421 6.65325 22.2257 6.5542C22.1932 6.35715 22.0474 6.21187 21.8746 6.12931L9.21231 0.079113C8.68568 -0.172516 8.07592 0.206237 8.06832 0.789708L7.99725 6.24402L0.680732 6.14418C0.349129 6.13966 0.0179627 6.34467 0.0018393 6.69186C-0.0044969 6.8283 0.00629203 6.94942 0.0226484 7.04847C0.0551873 7.24552 0.200923 7.3908 0.373713 7.47336L13.0361 13.5236C13.5627 13.7752 14.1724 13.3965 14.18 12.813L14.2511 7.35867L21.5676 7.45849C21.8992 7.46301 22.2304 7.258 22.2465 6.91081Z" fill="#0060BF"/>
</svg>
