<svg width="24" height="23" viewBox="0 0 24 23" fill="none" xmlns="http://www.w3.org/2000/svg">
<path fill-rule="evenodd" clip-rule="evenodd" d="M7.35379 0.452963C7.8554 -0.106985 8.71596 -0.154277 9.27591 0.347332L13.1866 3.85056C13.7465 4.35217 13.7938 5.21273 13.2922 5.77268L9.91793 9.53938L11.2566 10.7711L12.328 9.60673C12.4464 9.47799 12.6583 9.51439 12.727 9.6753L14.1402 12.9862L17.3475 9.4058C17.8492 8.84585 18.7097 8.79856 19.2697 9.30017L23.1803 12.8034C23.7403 13.305 23.7876 14.1656 23.286 14.7255L16.2795 22.5468C15.7779 23.1068 14.9173 23.1541 14.3574 22.6525L10.4467 19.1492C9.88677 18.6476 9.83948 17.7871 10.3411 17.2271L13.7246 13.4501L12.4285 12.2575L11.3571 13.4219C11.2387 13.5506 11.0268 13.5142 10.9581 13.3533L9.51987 9.98374L6.28574 13.594C5.78413 14.1539 4.92357 14.2012 4.36362 13.6996L0.452963 10.1964C-0.106985 9.69479 -0.154277 8.83423 0.347332 8.27429L7.35379 0.452963Z" fill="#67A9EA"/>
</svg>
