<svg width="104" height="50" viewBox="0 0 104 50" fill="none" xmlns="http://www.w3.org/2000/svg">
<path d="M54.5703 26.0387V0H65.8966V16.9894C68.5238 16.9894 73.2528 16.5807 76.4055 15.8217V26.0387H54.5703ZM69.6914 13.4864V4.14517H78.3905V0H89.5416V26.5058H78.3905V13.4864H69.6914ZM91.8185 26.5058V0H103.028V26.5058H91.8185ZM103.028 49.3918H91.3514V37.3066H54.5703V28.2572H103.028V49.3918Z" fill="white"/>
<path d="M0 25.3381L5.60474 9.04932H0V0H33.862V9.04932H28.2572L33.862 25.3381H21.8935L16.931 8.99094L11.9685 25.3381H0ZM37.073 25.3381V0H48.7496V25.3381H37.073ZM0.291914 27.0896H48.7496V49.3918H0.291914V27.0896Z" fill="white"/>
</svg>
